# xmcd
#
# Track frame offsets: 
#        150
#        17800
#        30421
#        46102
#        62253
#        76002
#        90654
#        105782
#        118105
#        137448
#        152704
#        165948
#        192189
#        206779
#        216949
#        230106
#        245996
#        262227
#        279160
#        292116
#        306073
#        322528
#        331477
#        339586
#
# Disc length: 4730 seconds
#
# Revision: 0
# Processed by: cddbd v1.5.2PL0 Copyright (c) Steve Scherf et al.
# Submitted via: ExactAudioCopy v0.95b3
#
DISCID=47127818
DTITLE=Before The Salt {Down To Earth (Barnaby 1977) and High Cumberland
DTITLE=Jubile (Barnab 1979)} - Jimmy Buffet
DYEAR=1979
DGENRE=Country
TTITLE0=The Christian
TTITLE1=Ellis Dee
TTITLE2=Richard Frost
TTITLE3=The Missionary
TTITLE4=A Mile high in Denver
TTITLE5=The Captain and the Kid
TTITLE6=Captain America
TTITLE7=Ain't He a Genius
TTITLE8=Turnabout
TTITLE9=There's Nothin' Soft About Hard Times
TTITLE10=I can't be your Hero today
TTITLE11=Truckstop Salvation
TTITLE12=Ace
TTITLE13=Rockefeller Square
TTITLE14=Bend A Little
TTITLE15=In The Shelter
TTITLE16=Death Valley Lives
TTITLE17=Livingston's Gone To Texas
TTITLE18=England
TTITLE19=Travelin' Clean
TTITLE20=The Hang-out Gang
TTITLE21=God Don't Own A Car
TTITLE22=Comin' Down Slow
TTITLE23=High Cumberland Jubilee
EXTD=Katalog MCA 10823 - D163993\nBefore The Salt {Down To Earth (Barn
EXTD=aby 1977) and High Cumberland Jubile (Barnab 1979)}\n
EXTT0=
EXTT1=
EXTT2=
EXTT3=
EXTT4=
EXTT5=
EXTT6=
EXTT7=
EXTT8=
EXTT9=
EXTT10=
EXTT11=
EXTT12=
EXTT13=
EXTT14=
EXTT15=
EXTT16=
EXTT17=
EXTT18=
EXTT19=
EXTT20=
EXTT21=
EXTT22=
EXTT23=
PLAYORDER=
